HIERARCHY
ROOT hip
{
  OFFSET 0 0 0
  CHANNELS 6 Xposition Yposition Zposition Zrotation Yrotation Xrotation
  JOINT abdomen
  {
    OFFSET 0 20.6881 -0.73152
    CHANNELS 3 Zrotation Xrotation Yrotation
    JOINT chest
    {
      OFFSET 0 11.7043 -0.48768
      CHANNELS 3 Zrotation Xrotation Yrotation
      JOINT neck
      {
        OFFSET 0 22.1894 -2.19456
        CHANNELS 3 Zrotation Xrotation Yrotation
        JOINT head
        {
          OFFSET -0.24384 7.07133 1.2192
          CHANNELS 3 Zrotation Xrotation Yrotation
          JOINT leftEye
          {
            OFFSET 4.14528 8.04674 8.04672
            CHANNELS 3 Zrotation Xrotation Yrotation
            End Site
            {
              OFFSET 1 0 0
            }
          }
          JOINT rightEye
          {
            OFFSET -3.6576 8.04674 8.04672
            CHANNELS 3 Zrotation Xrotation Yrotation
            End Site
            {
              OFFSET 1 0 0
            }
          }
        }
      }
      JOINT rCollar
      {
        OFFSET -2.68224 19.2634 -4.8768
        CHANNELS 3 Zrotation Xrotation Yrotation
        JOINT rShldr
        {
          OFFSET -8.77824 -1.95073 1.46304
          CHANNELS 3 Zrotation Xrotation Yrotation
          JOINT rForeArm
          {
            OFFSET -28.1742 -1.7115 0.48768
            CHANNELS 3 Zrotation Xrotation Yrotation
            JOINT rHand
            {
              OFFSET -22.5879 0.773209 7.07136
              CHANNELS 3 Zrotation Xrotation Yrotation
              JOINT rThumb1
              {
                OFFSET -1.2192 -0.487915 3.41376
                CHANNELS 3 Zrotation Xrotation Yrotation
                JOINT rThumb2
                {
                  OFFSET -3.37035 -0.52449 3.41376
                  CHANNELS 3 Zrotation Xrotation Yrotation
                  End Site
                  {
                    OFFSET -1.78271 -1.18214 1.43049
                  }
                }
              }
              JOINT rIndex1
              {
                OFFSET -7.75947 0.938293 5.60832
                CHANNELS 3 Zrotation Xrotation Yrotation
                JOINT rIndex2
                {
                  OFFSET -2.54057 -0.884171 1.56538
                  CHANNELS 3 Zrotation Xrotation Yrotation
                  End Site
                  {
                    OFFSET -1.62519 -0.234802 1.16502
                  }
                }
              }
              JOINT rMid1
              {
                OFFSET -8.24714 1.18213 3.41376
                CHANNELS 3 Zrotation Xrotation Yrotation
                JOINT rMid2
                {
                  OFFSET -3.10165 -0.590103 1.0647
                  CHANNELS 3 Zrotation Xrotation Yrotation
                  End Site
                  {
                    OFFSET -2.48547 -0.328903 0.83742
                  }
                }
              }
              JOINT rRing1
              {
                OFFSET -8.82822 0.546677 1.51678
                CHANNELS 3 Zrotation Xrotation Yrotation
                JOINT rRing2
                {
                  OFFSET -2.60934 -0.819778 -0.0198488
                  CHANNELS 3 Zrotation Xrotation Yrotation
                  End Site
                  {
                    OFFSET -2.33842 -0.294052 0.168128
                  }
                }
              }
              JOINT rPinky1
              {
                OFFSET -8.27202 -0.0477905 -0.4584
                CHANNELS 3 Zrotation Xrotation Yrotation
                JOINT rPinky2
                {
                  OFFSET -1.82734 -0.647385 -0.700984
                  CHANNELS 3 Zrotation Xrotation Yrotation
                  End Site
                  {
                    OFFSET -1.69225 -0.51767 -0.607171
                  }
                }
              }
            }
          }
        }
      }
      JOINT lCollar
      {
        OFFSET 2.68224 19.2634 -4.8768
        CHANNELS 3 Zrotation Xrotation Yrotation
        JOINT lShldr
        {
          OFFSET 8.77824 -1.95073 1.46304
          CHANNELS 3 Zrotation Xrotation Yrotation
          JOINT lForeArm
          {
            OFFSET 28.1742 -1.7115 0.48768
            CHANNELS 3 Zrotation Xrotation Yrotation
            JOINT lHand
            {
              OFFSET 22.5879 0.773209 7.07136
              CHANNELS 3 Zrotation Xrotation Yrotation
              JOINT lThumb1
              {
                OFFSET 1.2192 -0.487915 3.41376
                CHANNELS 3 Zrotation Xrotation Yrotation
                JOINT lThumb2
                {
                  OFFSET 3.37035 -0.52449 3.41376
                  CHANNELS 3 Zrotation Xrotation Yrotation
                  End Site
                  {
                    OFFSET 1.78271 -1.18214 1.43049
                  }
                }
              }
              JOINT lIndex1
              {
                OFFSET 7.75947 0.938293 5.60832
                CHANNELS 3 Zrotation Xrotation Yrotation
                JOINT lIndex2
                {
                  OFFSET 2.54057 -0.884171 1.56538
                  CHANNELS 3 Zrotation Xrotation Yrotation
                  End Site
                  {
                    OFFSET 1.62519 -0.234802 1.16502
                  }
                }
              }
              JOINT lMid1
              {
                OFFSET 8.24714 1.18213 3.41376
                CHANNELS 3 Zrotation Xrotation Yrotation
                JOINT lMid2
                {
                  OFFSET 3.10165 -0.590103 1.0647
                  CHANNELS 3 Zrotation Xrotation Yrotation
                  End Site
                  {
                    OFFSET 2.48547 -0.328903 0.83742
                  }
                }
              }
              JOINT lRing1
              {
                OFFSET 8.82822 0.546677 1.51678
                CHANNELS 3 Zrotation Xrotation Yrotation
                JOINT lRing2
                {
                  OFFSET 2.60934 -0.819778 -0.0198488
                  CHANNELS 3 Zrotation Xrotation Yrotation
                  End Site
                  {
                    OFFSET 2.33842 -0.294052 0.168128
                  }
                }
              }
              JOINT lPinky1
              {
                OFFSET 8.27202 -0.0477905 -0.4584
                CHANNELS 3 Zrotation Xrotation Yrotation
                JOINT lPinky2
                {
                  OFFSET 1.82734 -0.647385 -0.700984
                  CHANNELS 3 Zrotation Xrotation Yrotation
                  End Site
                  {
                    OFFSET 1.69225 -0.51767 -0.607171
                  }
                }
              }
            }
          }
        }
      }
    }
  }
  JOINT rButtock
  {
    OFFSET -8.77824 4.35084 1.2192
    CHANNELS 3 Zrotation Xrotation Yrotation
    JOINT rThigh
    {
      OFFSET 0 -1.70687 -2.19456
      CHANNELS 3 Zrotation Xrotation Yrotation
      JOINT rShin
      {
        OFFSET 0 -36.8199 0.73152
        CHANNELS 3 Zrotation Xrotation Yrotation
        JOINT rFoot
        {
          OFFSET 0.73152 -45.1104 -5.12064
          CHANNELS 3 Zrotation Xrotation Yrotation
          End Site
          {
            OFFSET -1.1221 -3.69964 12.103
          }
        }
      }
    }
  }
  JOINT lButtock
  {
    OFFSET 8.77824 4.35084 1.2192
    CHANNELS 3 Zrotation Xrotation Yrotation
    JOINT lThigh
    {
      OFFSET 0 -1.70687 -2.19456
      CHANNELS 3 Zrotation Xrotation Yrotation
      JOINT lShin
      {
        OFFSET 0 -36.8199 0.73152
        CHANNELS 3 Zrotation Xrotation Yrotation
        JOINT lFoot
        {
          OFFSET -0.73152 -45.1104 -5.12064
          CHANNELS 3 Zrotation Xrotation Yrotation
          End Site
          {
            OFFSET 1.1221 -3.69964 12.103
          }
        }
      }
    }
  }
}
MOTION
Frames:	5
Frame Time:	0.00833333
5.42053 85.0114 -80.145 0.0 0.0 0.0 0.0256061 -6.19124e-06 0.000728832 0.00706471 8.63214e-06 0.00122381 3.80337e-16 0.0 7.765e-19 1.1368e-15 3.18055e-15 4.65902e-18 -0.0 0.0 0.0 -0.0 0.0 0.0 2.47161e-16 -3.88251e-19 1.49089e-16 5.92782e-15 5.03174e-16 7.95139e-16 7.05189e-14 -1.72943e-14 -2.22639e-14 7.86858e-13 3.42158e-14 1.27222e-14 1.8577e-12 2.94696e-14 0.0 3.1897e-12 4.77083e-14 3.18055e-15 1.86102e-12 2.74323e-14 -9.54166e-15 7.73091 5.47488 0.417314 1.85551e-12 2.93207e-14 0.0 2.90554 0.965183 0.102902 1.86517e-12 2.92213e-14 3.97569e-15 10.2786 0.731801 0.0259123 1.85168e-12 3.06128e-14 1.90833e-14 2.22167 -0.733487 -0.20892 1.50422e-16 -3.88251e-19 -1.49089e-16 2.02425e-15 4.03781e-16 -7.95139e-16 6.96243e-14 1.92821e-14 2.54444e-14 7.85914e-13 -2.49972e-14 -1.27222e-14 1.85828e-12 -1.82389e-14 1.27222e-14 3.21753e-12 -3.18055e-14 1.82882e-14 1.85506e-12 -1.66979e-14 2.8625e-14 -7.73091 5.47488 -0.417314 1.85854e-12 -1.87852e-14 6.36111e-15 -2.90554 0.965183 -0.102902 1.85119e-12 -1.87852e-14 7.95139e-15 -10.2786 0.731801 -0.0259123 1.86937e-12 -1.66979e-14 -9.54166e-15 -2.22167 -0.733487 0.20892 -2.03217e-16 0.0 -3.88251e-19 0.512306 -3.13364 -0.0420887 -0.00562807 0.123098 -0.0495528 -0.492806 3.00963 0.117361 2.03217e-16 0.0 3.88251e-19 -0.473318 -3.03453 0.0397102 0.00592193 -0.0564344 0.0521745 0.492498 3.09005 -0.118955
5.18734 83.6122 -82.0071 0.4954 -6.3839 6.9406 -0.17908 0.662655 -1.19277 1.35844 -0.785975 -0.309573 -3.28036 0.248193 -2.81375 2.94644 -2.24967 -4.49423 -0.0 0.0 0.0 -0.0 0.0 0.0 1.08199e-14 -3.42664e-14 3.72154e-14 21.5951 3.93711 0.0185033 -4.88262 -2.36865 7.45622 0.00277114 1.16781 0.164001 -3.88435e-10 5.05658e-10 6.22888e-11 -6.71209e-10 8.75529e-10 1.09545e-10 -3.88431e-10 5.05658e-10 6.22802e-11 7.73091 5.47488 0.417314 -3.88436e-10 5.05658e-10 6.22899e-11 2.90554 0.965183 0.102902 -3.88427e-10 5.05658e-10 6.22925e-11 10.2786 0.731801 0.0259123 -3.8844e-10 5.05659e-10 6.23053e-11 2.22167 -0.733487 -0.20892 1.07707e-14 -3.4265e-14 3.69899e-14 -22.6968 4.23264 -0.184306 4.46387 -2.08053 -6.91603 -0.00926863 2.13659 -0.299526 -4.08827e-10 -5.6249e-10 -1.10471e-10 -7.07685e-10 -9.71572e-10 -1.87328e-10 -4.0883e-10 -5.6249e-10 -1.10457e-10 -7.73091 5.47488 -0.417314 -4.08825e-10 -5.6249e-10 -1.10474e-10 -2.90554 0.965183 -0.102902 -4.08833e-10 -5.62491e-10 -1.10473e-10 -10.2786 0.731801 -0.0259123 -4.08816e-10 -5.62489e-10 -1.10488e-10 -2.22167 -0.733487 0.20892 -2.03217e-16 0.0 -3.88251e-19 0.160441 -6.57124 1.92859 -0.000201825 5.89888 0.0492134 -0.633742 0.254493 -2.46807 2.03217e-16 0.0 3.88251e-19 -0.320973 -5.76641 -0.754954 -0.00273656 5.03687 -0.0402415 0.630674 -0.0900604 2.40747
5.18683 83.6121 -82.0107 0.4831 -6.3543 6.9576 -0.366951 1.36019 -2.45685 2.77934 -1.61825 -0.638754 -6.71904 0.487064 -5.79075 5.66155 -4.56264 -9.27169 -0.0 0.0 0.0 -0.0 0.0 0.0 2.21252e-14 -7.3353e-14 8.04643e-14 44.4212 8.10118 0.035696 -9.38032 -4.73928 15.3797 -0.00157271 2.40076 0.337383 -8.25488e-10 1.08629e-09 1.49389e-10 -1.42635e-09 1.88085e-09 2.62237e-10 -8.25485e-10 1.08629e-09 1.49382e-10 7.73091 5.47488 0.417314 -8.25489e-10 1.08629e-09 1.49391e-10 2.90554 0.965183 0.102902 -8.25479e-10 1.08629e-09 1.49393e-10 10.2786 0.731801 0.0259123 -8.25493e-10 1.08629e-09 1.49403e-10 2.22167 -0.733487 -0.20892 2.21306e-14 -7.33499e-14 8.03183e-14 -46.663 8.70294 -0.378475 8.64006 -4.17832 -14.255 0.00530911 4.40183 -0.618503 -8.65125e-10 -1.20028e-09 -2.27924e-10 -1.4975e-09 -2.07321e-09 -3.86282e-10 -8.65128e-10 -1.20028e-09 -2.27913e-10 -7.73091 5.47488 -0.417314 -8.65121e-10 -1.20028e-09 -2.27924e-10 -2.90554 0.965183 -0.102902 -8.6513e-10 -1.20028e-09 -2.27924e-10 -10.2786 0.731801 -0.0259123 -8.65115e-10 -1.20028e-09 -2.27935e-10 -2.22167 -0.733487 0.20892 -2.03217e-16 0.0 -3.88251e-19 0.0472865 -10.1874 4.04996 -0.016497 12.0043 0.156506 -1.05294 -2.64685 -5.20718 2.03217e-16 0.0 3.88251e-19 -0.245169 -8.65124 -1.6045 0.00622704 10.4217 -0.139949 1.08183 -3.43995 5.08712
5.20962 83.612 -82.0125 0.5588 -6.258 6.971 -0.50565 1.98453 -3.58169 4.03561 -2.35766 -0.931867 -9.76824 0.7374 -8.44188 7.78548 -6.58268 -13.5634 -0.0 0.0 0.0 -0.0 0.0 0.0 3.19654e-14 -1.02798e-13 1.11348e-13 64.7775 11.8113 0.0565768 -12.8403 -6.62564 22.5079 -0.0117745 3.50331 0.492823 -1.16902e-09 1.51691e-09 1.86867e-10 -2.02001e-09 2.62649e-09 3.28629e-10 -1.16902e-09 1.51692e-09 1.8686e-10 7.73091 5.47488 0.417314 -1.16902e-09 1.51692e-09 1.8687e-10 2.90554 0.965183 0.102902 -1.16901e-09 1.51692e-09 1.86869e-10 10.2786 0.731801 0.0259123 -1.16902e-09 1.51692e-09 1.86878e-10 2.22167 -0.733487 -0.20892 3.20111e-14 -1.02794e-13 1.11268e-13 -68.007 12.6974 -0.565235 11.9147 -5.8786 -20.8491 0.039567 6.40908 -0.9036 -1.2302e-09 -1.68743e-09 -3.31438e-10 -2.12949e-09 -2.91465e-09 -5.62022e-10 -1.2302e-09 -1.68744e-09 -3.3143e-10 -7.73091 5.47488 -0.417314 -1.23019e-09 -1.68743e-09 -3.31435e-10 -2.90554 0.965183 -0.102902 -1.2302e-09 -1.68744e-09 -3.31436e-10 -10.2786 0.731801 -0.0259123 -1.23019e-09 -1.68743e-09 -3.31444e-10 -2.22167 -0.733487 0.20892 -2.03217e-16 0.0 -3.88251e-19 0.182582 -13.3866 5.99526 -0.051281 17.4503 0.25783 -1.6613 -5.20832 -7.6704 2.03217e-16 0.0 3.88251e-19 -0.247599 -11.2222 -2.37821 0.0305731 15.2233 -0.232775 1.74948 -6.39571 7.50695
5.216 83.6133 -82.0098 0.5666 -6.1813 6.9596 -0.579646 2.42915 -4.35666 4.89851 -2.86519 -1.13413 -11.885 1.02184 -10.2781 9.15964 -8.02619 -16.5667 -0.0 0.0 0.0 -0.0 0.0 0.0 3.81427e-14 -1.08141e-13 1.11319e-13 78.963 14.3866 0.0860131 -14.9641 -7.75937 27.5149 -0.0225192 4.27996 0.602641 -1.27875e-09 1.57252e-09 1.00286e-10 -2.20995e-09 2.72296e-09 1.79268e-10 -1.27874e-09 1.57253e-09 1.0028e-10 7.73091 5.47488 0.417314 -1.27875e-09 1.57252e-09 1.00289e-10 2.90554 0.965183 0.102902 -1.27874e-09 1.57252e-09 1.00288e-10 10.2786 0.731801 0.0259123 -1.27875e-09 1.57252e-09 1.00296e-10 2.22167 -0.733487 -0.20892 3.8193e-14 -1.08136e-13 1.1127e-13 -82.8517 15.5026 -0.722445 13.9638 -6.93035 -25.4846 0.0746624 7.77204 -1.09911 -1.36721e-09 -1.798e-09 -4.00104e-10 -2.36691e-09 -3.10562e-09 -6.79731e-10 -1.36721e-09 -1.798e-09 -4.00098e-10 -7.73091 5.47488 -0.417314 -1.3672e-09 -1.798e-09 -4.00101e-10 -2.90554 0.965183 -0.102902 -1.36721e-09 -1.79801e-09 -4.00101e-10 -10.2786 0.731801 -0.0259123 -1.3672e-09 -1.798e-09 -4.00107e-10 -2.22167 -0.733487 0.20892 -2.03217e-16 0.0 -3.88251e-19 0.421532 -15.5979 7.39046 -0.0878367 21.2479 0.333381 -2.21613 -6.97023 -9.40407 2.03217e-16 0.0 3.88251e-19 -0.281641 -13.0157 -2.93303 0.0571511 18.5674 -0.30076 2.36296 -8.42299 9.22123
